<svg xmlns="http://www.w3.org/2000/svg" xmlns:xlink="http://www.w3.org/1999/xlink" width="2594.994" height="189.416" viewBox="0 0 2594.994 189.416">
  <defs>
    <filter id="Trazado_786" x="2498.188" y="104.209" width="85.899" height="85.207" filterUnits="userSpaceOnUse">
      <feOffset input="SourceAlpha"/>
      <feGaussianBlur stdDeviation="7.67" result="blur"/>
      <feFlood flood-color="#aab7dd"/>
      <feComposite operator="in" in2="blur"/>
      <feComposite in="SourceGraphic"/>
    </filter>
    <filter id="Elipse_4" x="1793.741" y="57.67" width="56.761" height="56.575" filterUnits="userSpaceOnUse">
      <feOffset input="SourceAlpha"/>
      <feGaussianBlur stdDeviation="7.67" result="blur-2"/>
      <feFlood flood-color="#aab7dd"/>
      <feComposite operator="in" in2="blur-2"/>
      <feComposite in="SourceGraphic"/>
    </filter>
    <filter id="Elipse_5" x="1679.446" y="26.76" width="50.637" height="50.558" filterUnits="userSpaceOnUse">
      <feOffset input="SourceAlpha"/>
      <feGaussianBlur stdDeviation="7.67" result="blur-3"/>
      <feFlood flood-color="#aab7dd"/>
      <feComposite operator="in" in2="blur-3"/>
      <feComposite in="SourceGraphic"/>
    </filter>
    <filter id="Trazado_811" x="1544.752" y="55.402" width="50.637" height="50.557" filterUnits="userSpaceOnUse">
      <feOffset input="SourceAlpha"/>
      <feGaussianBlur stdDeviation="7.67" result="blur-4"/>
      <feFlood flood-color="#aab7dd"/>
      <feComposite operator="in" in2="blur-4"/>
      <feComposite in="SourceGraphic"/>
    </filter>
    <filter id="Trazado_812" x="205.462" y="46.056" width="50.636" height="50.556" filterUnits="userSpaceOnUse">
      <feOffset input="SourceAlpha"/>
      <feGaussianBlur stdDeviation="7.67" result="blur-5"/>
      <feFlood flood-color="#aab7dd"/>
      <feComposite operator="in" in2="blur-5"/>
      <feComposite in="SourceGraphic"/>
    </filter>
    <filter id="Trazado_813" x="0" y="4.085" width="75.17" height="74.983" filterUnits="userSpaceOnUse">
      <feOffset input="SourceAlpha"/>
      <feGaussianBlur stdDeviation="7.67" result="blur-6"/>
      <feFlood flood-color="#aab7dd"/>
      <feComposite operator="in" in2="blur-6"/>
      <feComposite in="SourceGraphic"/>
    </filter>
    <filter id="Elipse_6" x="91.17" y="29.982" width="50.637" height="50.557" filterUnits="userSpaceOnUse">
      <feOffset input="SourceAlpha"/>
      <feGaussianBlur stdDeviation="7.67" result="blur-7"/>
      <feFlood flood-color="#aab7dd"/>
      <feComposite operator="in" in2="blur-7"/>
      <feComposite in="SourceGraphic"/>
    </filter>
    <filter id="Trazado_814" x="95.785" y="51.411" width="54.836" height="54.683" filterUnits="userSpaceOnUse">
      <feOffset input="SourceAlpha"/>
      <feGaussianBlur stdDeviation="7.67" result="blur-8"/>
      <feFlood flood-color="#aab7dd"/>
      <feComposite operator="in" in2="blur-8"/>
      <feComposite in="SourceGraphic"/>
    </filter>
    <filter id="Trazado_815" x="665.512" y="3.204" width="50.637" height="50.557" filterUnits="userSpaceOnUse">
      <feOffset input="SourceAlpha"/>
      <feGaussianBlur stdDeviation="7.67" result="blur-9"/>
      <feFlood flood-color="#aab7dd"/>
      <feComposite operator="in" in2="blur-9"/>
      <feComposite in="SourceGraphic"/>
    </filter>
    <filter id="Elipse_7" x="583.247" y="61.2" width="47.927" height="47.894" filterUnits="userSpaceOnUse">
      <feOffset input="SourceAlpha"/>
      <feGaussianBlur stdDeviation="7.67" result="blur-10"/>
      <feFlood flood-color="#aab7dd"/>
      <feComposite operator="in" in2="blur-10"/>
      <feComposite in="SourceGraphic"/>
    </filter>
    <filter id="Trazado_816" x="558.597" y="32.645" width="47.927" height="47.894" filterUnits="userSpaceOnUse">
      <feOffset input="SourceAlpha"/>
      <feGaussianBlur stdDeviation="7.67" result="blur-11"/>
      <feFlood flood-color="#aab7dd"/>
      <feComposite operator="in" in2="blur-11"/>
      <feComposite in="SourceGraphic"/>
    </filter>
    <filter id="Trazado_817" x="632.056" y="27.76" width="50.637" height="50.557" filterUnits="userSpaceOnUse">
      <feOffset input="SourceAlpha"/>
      <feGaussianBlur stdDeviation="7.67" result="blur-12"/>
      <feFlood flood-color="#aab7dd"/>
      <feComposite operator="in" in2="blur-12"/>
      <feComposite in="SourceGraphic"/>
    </filter>
    <filter id="Trazado_818" x="704.819" y="21.366" width="54.837" height="54.684" filterUnits="userSpaceOnUse">
      <feOffset input="SourceAlpha"/>
      <feGaussianBlur stdDeviation="7.67" result="blur-13"/>
      <feFlood flood-color="#aab7dd"/>
      <feComposite operator="in" in2="blur-13"/>
      <feComposite in="SourceGraphic"/>
    </filter>
    <filter id="Trazado_819" x="2371.209" y="14.768" width="54.838" height="54.683" filterUnits="userSpaceOnUse">
      <feOffset input="SourceAlpha"/>
      <feGaussianBlur stdDeviation="7.67" result="blur-14"/>
      <feFlood flood-color="#aab7dd"/>
      <feComposite operator="in" in2="blur-14"/>
      <feComposite in="SourceGraphic"/>
    </filter>
    <filter id="Trazado_820" x="1856.988" y="13.571" width="57.272" height="57.077" filterUnits="userSpaceOnUse">
      <feOffset input="SourceAlpha"/>
      <feGaussianBlur stdDeviation="7.67" result="blur-15"/>
      <feFlood flood-color="#aab7dd"/>
      <feComposite operator="in" in2="blur-15"/>
      <feComposite in="SourceGraphic"/>
    </filter>
    <filter id="Trazado_821" x="2191.698" y="16.967" width="72.025" height="71.893" filterUnits="userSpaceOnUse">
      <feOffset input="SourceAlpha"/>
      <feGaussianBlur stdDeviation="7.67" result="blur-16"/>
      <feFlood flood-color="#aab7dd"/>
      <feComposite operator="in" in2="blur-16"/>
      <feComposite in="SourceGraphic"/>
    </filter>
    <filter id="Trazado_822" x="494.218" y="35.367" width="50.637" height="50.557" filterUnits="userSpaceOnUse">
      <feOffset input="SourceAlpha"/>
      <feGaussianBlur stdDeviation="7.67" result="blur-17"/>
      <feFlood flood-color="#aab7dd"/>
      <feComposite operator="in" in2="blur-17"/>
      <feComposite in="SourceGraphic"/>
    </filter>
    <filter id="Trazado_823" x="1940.751" y="61.624" width="50.637" height="50.557" filterUnits="userSpaceOnUse">
      <feOffset input="SourceAlpha"/>
      <feGaussianBlur stdDeviation="7.67" result="blur-18"/>
      <feFlood flood-color="#aab7dd"/>
      <feComposite operator="in" in2="blur-18"/>
      <feComposite in="SourceGraphic"/>
    </filter>
    <filter id="Trazado_824" x="2020.894" y="41.161" width="47.927" height="47.894" filterUnits="userSpaceOnUse">
      <feOffset input="SourceAlpha"/>
      <feGaussianBlur stdDeviation="7.67" result="blur-19"/>
      <feFlood flood-color="#aab7dd"/>
      <feComposite operator="in" in2="blur-19"/>
      <feComposite in="SourceGraphic"/>
    </filter>
    <filter id="Trazado_825" x="282.748" y="53.869" width="47.927" height="47.894" filterUnits="userSpaceOnUse">
      <feOffset input="SourceAlpha"/>
      <feGaussianBlur stdDeviation="7.67" result="blur-20"/>
      <feFlood flood-color="#aab7dd"/>
      <feComposite operator="in" in2="blur-20"/>
      <feComposite in="SourceGraphic"/>
    </filter>
    <filter id="Trazado_826" x="431.68" y="33.581" width="47.927" height="47.894" filterUnits="userSpaceOnUse">
      <feOffset input="SourceAlpha"/>
      <feGaussianBlur stdDeviation="7.67" result="blur-21"/>
      <feFlood flood-color="#aab7dd"/>
      <feComposite operator="in" in2="blur-21"/>
      <feComposite in="SourceGraphic"/>
    </filter>
    <filter id="Trazado_827" x="355.656" y="51.064" width="47.927" height="47.894" filterUnits="userSpaceOnUse">
      <feOffset input="SourceAlpha"/>
      <feGaussianBlur stdDeviation="7.67" result="blur-22"/>
      <feFlood flood-color="#aab7dd"/>
      <feComposite operator="in" in2="blur-22"/>
      <feComposite in="SourceGraphic"/>
    </filter>
    <filter id="Trazado_828" x="1580.501" y="30.359" width="47.926" height="47.894" filterUnits="userSpaceOnUse">
      <feOffset input="SourceAlpha"/>
      <feGaussianBlur stdDeviation="7.67" result="blur-23"/>
      <feFlood flood-color="#aab7dd"/>
      <feComposite operator="in" in2="blur-23"/>
      <feComposite in="SourceGraphic"/>
    </filter>
    <filter id="Elipse_8" x="1730.272" y="20.295" width="54.837" height="54.684" filterUnits="userSpaceOnUse">
      <feOffset input="SourceAlpha"/>
      <feGaussianBlur stdDeviation="7.67" result="blur-24"/>
      <feFlood flood-color="#aab7dd"/>
      <feComposite operator="in" in2="blur-24"/>
      <feComposite in="SourceGraphic"/>
    </filter>
    <filter id="Trazado_829" x="1899.412" y="63.891" width="54.836" height="54.684" filterUnits="userSpaceOnUse">
      <feOffset input="SourceAlpha"/>
      <feGaussianBlur stdDeviation="7.67" result="blur-25"/>
      <feFlood flood-color="#aab7dd"/>
      <feComposite operator="in" in2="blur-25"/>
      <feComposite in="SourceGraphic"/>
    </filter>
    <filter id="Trazado_830" x="2171.813" y="70.384" width="47.927" height="47.893" filterUnits="userSpaceOnUse">
      <feOffset input="SourceAlpha"/>
      <feGaussianBlur stdDeviation="7.67" result="blur-26"/>
      <feFlood flood-color="#aab7dd"/>
      <feComposite operator="in" in2="blur-26"/>
      <feComposite in="SourceGraphic"/>
    </filter>
    <filter id="Trazado_831" x="328.867" y="9.956" width="50.637" height="50.557" filterUnits="userSpaceOnUse">
      <feOffset input="SourceAlpha"/>
      <feGaussianBlur stdDeviation="7.67" result="blur-27"/>
      <feFlood flood-color="#aab7dd"/>
      <feComposite operator="in" in2="blur-27"/>
      <feComposite in="SourceGraphic"/>
    </filter>
    <filter id="Trazado_832" x="14.574" y="67.76" width="77.058" height="76.521" filterUnits="userSpaceOnUse">
      <feOffset input="SourceAlpha"/>
      <feGaussianBlur stdDeviation="7.67" result="blur-28"/>
      <feFlood flood-color="#aab7dd"/>
      <feComposite operator="in" in2="blur-28"/>
      <feComposite in="SourceGraphic"/>
    </filter>
    <filter id="Trazado_833" x="733.586" y="88.211" width="85.897" height="85.207" filterUnits="userSpaceOnUse">
      <feOffset input="SourceAlpha"/>
      <feGaussianBlur stdDeviation="7.67" result="blur-29"/>
      <feFlood flood-color="#aab7dd"/>
      <feComposite operator="in" in2="blur-29"/>
      <feComposite in="SourceGraphic"/>
    </filter>
    <filter id="Trazado_834" x="968.506" y="14.234" width="54.836" height="54.684" filterUnits="userSpaceOnUse">
      <feOffset input="SourceAlpha"/>
      <feGaussianBlur stdDeviation="7.67" result="blur-30"/>
      <feFlood flood-color="#aab7dd"/>
      <feComposite operator="in" in2="blur-30"/>
      <feComposite in="SourceGraphic"/>
    </filter>
    <filter id="Trazado_835" x="1200.055" y="30.104" width="50.637" height="50.556" filterUnits="userSpaceOnUse">
      <feOffset input="SourceAlpha"/>
      <feGaussianBlur stdDeviation="7.67" result="blur-31"/>
      <feFlood flood-color="#aab7dd"/>
      <feComposite operator="in" in2="blur-31"/>
      <feComposite in="SourceGraphic"/>
    </filter>
    <filter id="Trazado_836" x="1130.451" y="9.463" width="47.927" height="47.894" filterUnits="userSpaceOnUse">
      <feOffset input="SourceAlpha"/>
      <feGaussianBlur stdDeviation="7.67" result="blur-32"/>
      <feFlood flood-color="#aab7dd"/>
      <feComposite operator="in" in2="blur-32"/>
      <feComposite in="SourceGraphic"/>
    </filter>
    <filter id="Trazado_837" x="1048.84" y="41.623" width="47.927" height="47.894" filterUnits="userSpaceOnUse">
      <feOffset input="SourceAlpha"/>
      <feGaussianBlur stdDeviation="7.67" result="blur-33"/>
      <feFlood flood-color="#aab7dd"/>
      <feComposite operator="in" in2="blur-33"/>
      <feComposite in="SourceGraphic"/>
    </filter>
    <filter id="Trazado_838" x="1085.763" y="14.03" width="50.637" height="50.557" filterUnits="userSpaceOnUse">
      <feOffset input="SourceAlpha"/>
      <feGaussianBlur stdDeviation="7.67" result="blur-34"/>
      <feFlood flood-color="#aab7dd"/>
      <feComposite operator="in" in2="blur-34"/>
      <feComposite in="SourceGraphic"/>
    </filter>
    <filter id="Trazado_839" x="1071.022" y="0" width="50.637" height="50.557" filterUnits="userSpaceOnUse">
      <feOffset input="SourceAlpha"/>
      <feGaussianBlur stdDeviation="7.67" result="blur-35"/>
      <feFlood flood-color="#aab7dd"/>
      <feComposite operator="in" in2="blur-35"/>
      <feComposite in="SourceGraphic"/>
    </filter>
    <filter id="Trazado_840" x="1284.769" y="56.187" width="50.637" height="50.557" filterUnits="userSpaceOnUse">
      <feOffset input="SourceAlpha"/>
      <feGaussianBlur stdDeviation="7.67" result="blur-36"/>
      <feFlood flood-color="#aab7dd"/>
      <feComposite operator="in" in2="blur-36"/>
      <feComposite in="SourceGraphic"/>
    </filter>
    <filter id="Trazado_841" x="805.798" y="23.429" width="50.636" height="50.557" filterUnits="userSpaceOnUse">
      <feOffset input="SourceAlpha"/>
      <feGaussianBlur stdDeviation="7.67" result="blur-37"/>
      <feFlood flood-color="#aab7dd"/>
      <feComposite operator="in" in2="blur-37"/>
      <feComposite in="SourceGraphic"/>
    </filter>
    <filter id="Trazado_842" x="2084.882" y="51.301" width="70.046" height="69.311" filterUnits="userSpaceOnUse">
      <feOffset input="SourceAlpha"/>
      <feGaussianBlur stdDeviation="4.602" result="blur-38"/>
      <feFlood flood-color="#aab7dd"/>
      <feComposite operator="in" in2="blur-38"/>
      <feComposite in="SourceGraphic"/>
    </filter>
    <filter id="Trazado_843" x="1158.784" y="52.936" width="50.637" height="50.557" filterUnits="userSpaceOnUse">
      <feOffset input="SourceAlpha"/>
      <feGaussianBlur stdDeviation="7.67" result="blur-39"/>
      <feFlood flood-color="#aab7dd"/>
      <feComposite operator="in" in2="blur-39"/>
      <feComposite in="SourceGraphic"/>
    </filter>
    <filter id="Trazado_844" x="2462.036" y="13.436" width="50.636" height="50.557" filterUnits="userSpaceOnUse">
      <feOffset input="SourceAlpha"/>
      <feGaussianBlur stdDeviation="7.67" result="blur-40"/>
      <feFlood flood-color="#aab7dd"/>
      <feComposite operator="in" in2="blur-40"/>
      <feComposite in="SourceGraphic"/>
    </filter>
    <filter id="Trazado_845" x="921.64" y="35.367" width="50.637" height="50.557" filterUnits="userSpaceOnUse">
      <feOffset input="SourceAlpha"/>
      <feGaussianBlur stdDeviation="7.67" result="blur-41"/>
      <feFlood flood-color="#aab7dd"/>
      <feComposite operator="in" in2="blur-41"/>
      <feComposite in="SourceGraphic"/>
    </filter>
    <filter id="Trazado_846" x="1368.393" y="28.697" width="50.637" height="50.557" filterUnits="userSpaceOnUse">
      <feOffset input="SourceAlpha"/>
      <feGaussianBlur stdDeviation="7.67" result="blur-42"/>
      <feFlood flood-color="#aab7dd"/>
      <feComposite operator="in" in2="blur-42"/>
      <feComposite in="SourceGraphic"/>
    </filter>
    <filter id="Trazado_847" x="1440.707" y="52" width="47.927" height="47.894" filterUnits="userSpaceOnUse">
      <feOffset input="SourceAlpha"/>
      <feGaussianBlur stdDeviation="7.67" result="blur-43"/>
      <feFlood flood-color="#aab7dd"/>
      <feComposite operator="in" in2="blur-43"/>
      <feComposite in="SourceGraphic"/>
    </filter>
    <filter id="Trazado_848" x="1465.73" y="27.965" width="47.927" height="47.894" filterUnits="userSpaceOnUse">
      <feOffset input="SourceAlpha"/>
      <feGaussianBlur stdDeviation="7.67" result="blur-44"/>
      <feFlood flood-color="#aab7dd"/>
      <feComposite operator="in" in2="blur-44"/>
      <feComposite in="SourceGraphic"/>
    </filter>
    <filter id="Elipse_9" x="1393.383" y="61.572" width="50.637" height="50.557" filterUnits="userSpaceOnUse">
      <feOffset input="SourceAlpha"/>
      <feGaussianBlur stdDeviation="7.67" result="blur-45"/>
      <feFlood flood-color="#aab7dd"/>
      <feComposite operator="in" in2="blur-45"/>
      <feComposite in="SourceGraphic"/>
    </filter>
    <filter id="Trazado_849" x="1317.31" y="28.901" width="54.836" height="54.684" filterUnits="userSpaceOnUse">
      <feOffset input="SourceAlpha"/>
      <feGaussianBlur stdDeviation="7.67" result="blur-46"/>
      <feFlood flood-color="#aab7dd"/>
      <feComposite operator="in" in2="blur-46"/>
      <feComposite in="SourceGraphic"/>
    </filter>
    <filter id="Trazado_850" x="865.043" y="34.517" width="47.927" height="47.894" filterUnits="userSpaceOnUse">
      <feOffset input="SourceAlpha"/>
      <feGaussianBlur stdDeviation="7.67" result="blur-47"/>
      <feFlood flood-color="#aab7dd"/>
      <feComposite operator="in" in2="blur-47"/>
      <feComposite in="SourceGraphic"/>
    </filter>
    <filter id="Trazado_851" x="2547.066" y="32.697" width="47.927" height="47.894" filterUnits="userSpaceOnUse">
      <feOffset input="SourceAlpha"/>
      <feGaussianBlur stdDeviation="7.67" result="blur-48"/>
      <feFlood flood-color="#aab7dd"/>
      <feComposite operator="in" in2="blur-48"/>
      <feComposite in="SourceGraphic"/>
    </filter>
    <filter id="Trazado_852" x="2499.054" y="51.045" width="47.927" height="47.895" filterUnits="userSpaceOnUse">
      <feOffset input="SourceAlpha"/>
      <feGaussianBlur stdDeviation="7.67" result="blur-49"/>
      <feFlood flood-color="#aab7dd"/>
      <feComposite operator="in" in2="blur-49"/>
      <feComposite in="SourceGraphic"/>
    </filter>
    <filter id="Trazado_853" x="2518.126" y="18.162" width="47.927" height="47.894" filterUnits="userSpaceOnUse">
      <feOffset input="SourceAlpha"/>
      <feGaussianBlur stdDeviation="7.67" result="blur-50"/>
      <feFlood flood-color="#aab7dd"/>
      <feComposite operator="in" in2="blur-50"/>
      <feComposite in="SourceGraphic"/>
    </filter>
    <filter id="Trazado_854" x="2442.303" y="22.493" width="47.927" height="47.894" filterUnits="userSpaceOnUse">
      <feOffset input="SourceAlpha"/>
      <feGaussianBlur stdDeviation="7.67" result="blur-51"/>
      <feFlood flood-color="#aab7dd"/>
      <feComposite operator="in" in2="blur-51"/>
      <feComposite in="SourceGraphic"/>
    </filter>
    <filter id="Trazado_855" x="2272.432" y="76.881" width="54.837" height="54.683" filterUnits="userSpaceOnUse">
      <feOffset input="SourceAlpha"/>
      <feGaussianBlur stdDeviation="7.67" result="blur-52"/>
      <feFlood flood-color="#aab7dd"/>
      <feComposite operator="in" in2="blur-52"/>
      <feComposite in="SourceGraphic"/>
    </filter>
    <filter id="Trazado_856" x="466.929" y="80.055" width="48.701" height="48.334" filterUnits="userSpaceOnUse">
      <feOffset input="SourceAlpha"/>
      <feGaussianBlur stdDeviation="4.602" result="blur-53"/>
      <feFlood flood-color="#aab7dd"/>
      <feComposite operator="in" in2="blur-53"/>
      <feComposite in="SourceGraphic"/>
    </filter>
    <filter id="Trazado_857" x="2475.855" y="110.917" width="48.701" height="48.335" filterUnits="userSpaceOnUse">
      <feOffset input="SourceAlpha"/>
      <feGaussianBlur stdDeviation="4.602" result="blur-54"/>
      <feFlood flood-color="#aab7dd"/>
      <feComposite operator="in" in2="blur-54"/>
      <feComposite in="SourceGraphic"/>
    </filter>
  </defs>
  <g id="Componente_8_1" data-name="Componente 8 – 1" transform="translate(32.216 23.011)">
    <g transform="matrix(1, 0, 0, 1, -32.22, -23.01)" filter="url(#Trazado_786)">
      <path id="Trazado_786-2" data-name="Trazado 786" d="M2515.256,125.266a.958.958,0,0,1,.468.46c.722,1.533,1.458,13.1,1.458,17.7,0-4.6.736-16.166,1.459-17.7a.947.947,0,0,1,.468-.46c1.56-.711,13.33-1.433,18.011-1.433-4.681,0-16.451-.724-18.011-1.434a.943.943,0,0,1-.468-.46c-.723-1.533-1.459-13.1-1.459-17.7,0,4.6-.736,16.166-1.458,17.7a.954.954,0,0,1-.468.46c-1.56.71-13.33,1.434-18.012,1.434C2501.926,123.833,2513.7,124.555,2515.256,125.266Z" transform="translate(23.96 22.98)" fill="#fff"/>
    </g>
    <g transform="matrix(1, 0, 0, 1, -32.22, -23.01)" filter="url(#Elipse_4)">
      <ellipse id="Elipse_4-2" data-name="Elipse 4" cx="5.369" cy="5.276" rx="5.369" ry="5.276" transform="translate(1816.75 80.68)" fill="#fff" opacity="0.3"/>
    </g>
    <g transform="matrix(1, 0, 0, 1, -32.22, -23.01)" filter="url(#Elipse_5)">
      <ellipse id="Elipse_5-2" data-name="Elipse 5" cx="2.308" cy="2.268" rx="2.308" ry="2.268" transform="translate(1702.46 49.77)" fill="#fff"/>
    </g>
    <g transform="matrix(1, 0, 0, 1, -32.22, -23.01)" filter="url(#Trazado_811)">
      <path id="Trazado_811-2" data-name="Trazado 811" d="M1546.115,55.433a2.268,2.268,0,1,1-2.307,2.268A2.288,2.288,0,0,1,1546.115,55.433Z" transform="translate(23.96 22.98)" fill="#fff"/>
    </g>
    <g transform="matrix(1, 0, 0, 1, -32.22, -23.01)" filter="url(#Trazado_812)">
      <path id="Trazado_812-2" data-name="Trazado 812" d="M206.825,46.087a2.267,2.267,0,1,1-2.307,2.267A2.287,2.287,0,0,1,206.825,46.087Z" transform="translate(23.96 22.98)" fill="#fff"/>
    </g>
    <g transform="matrix(1, 0, 0, 1, -32.22, -23.01)" filter="url(#Trazado_813)">
      <path id="Trazado_813-2" data-name="Trazado 813" d="M13.63,23.872A5.277,5.277,0,1,1,19,18.6,5.323,5.323,0,0,1,13.63,23.872Z" transform="translate(23.96 22.98)" fill="#fff"/>
    </g>
    <g transform="matrix(1, 0, 0, 1, -32.22, -23.01)" filter="url(#Elipse_6)">
      <ellipse id="Elipse_6-2" data-name="Elipse 6" cx="2.308" cy="2.267" rx="2.308" ry="2.267" transform="translate(114.18 52.99)" fill="#fff"/>
    </g>
    <g transform="matrix(1, 0, 0, 1, -32.22, -23.01)" filter="url(#Trazado_814)">
      <path id="Trazado_814-2" data-name="Trazado 814" d="M99.248,60.1a4.331,4.331,0,1,1,4.407-4.33A4.369,4.369,0,0,1,99.248,60.1Z" transform="translate(23.96 22.98)" fill="#fff"/>
    </g>
    <g transform="matrix(1, 0, 0, 1, -32.22, -23.01)" filter="url(#Trazado_815)">
      <path id="Trazado_815-2" data-name="Trazado 815" d="M664.567,5.5a2.308,2.308,0,1,1,2.307,2.268A2.287,2.287,0,0,1,664.567,5.5Z" transform="translate(23.96 22.98)" fill="#fff"/>
    </g>
    <g transform="matrix(1, 0, 0, 1, -32.22, -23.01)" filter="url(#Elipse_7)">
      <ellipse id="Elipse_7-2" data-name="Elipse 7" cx="0.952" cy="0.936" rx="0.952" ry="0.936" transform="translate(606.26 84.21)" fill="#fff"/>
    </g>
    <g transform="matrix(1, 0, 0, 1, -32.22, -23.01)" filter="url(#Trazado_816)">
      <path id="Trazado_816-2" data-name="Trazado 816" d="M559.558,33.612a.953.953,0,1,1-.953-.936A.945.945,0,0,1,559.558,33.612Z" transform="translate(23.96 22.98)" fill="#fff"/>
    </g>
    <g transform="matrix(1, 0, 0, 1, -32.22, -23.01)" filter="url(#Trazado_817)">
      <path id="Trazado_817-2" data-name="Trazado 817" d="M631.112,30.059a2.308,2.308,0,1,1,2.308,2.267A2.288,2.288,0,0,1,631.112,30.059Z" transform="translate(23.96 22.98)" fill="#fff"/>
    </g>
    <g transform="matrix(1, 0, 0, 1, -32.22, -23.01)" filter="url(#Trazado_818)">
      <path id="Trazado_818-2" data-name="Trazado 818" d="M703.874,25.728a4.408,4.408,0,1,1,4.408,4.331A4.37,4.37,0,0,1,703.874,25.728Z" transform="translate(23.96 22.98)" fill="#fff"/>
    </g>
    <g transform="matrix(1, 0, 0, 1, -32.22, -23.01)" filter="url(#Trazado_819)">
      <path id="Trazado_819-2" data-name="Trazado 819" d="M2370.265,19.13a4.408,4.408,0,1,1,4.408,4.33A4.37,4.37,0,0,1,2370.265,19.13Z" transform="translate(23.96 22.98)" fill="#fff"/>
    </g>
    <g transform="matrix(1, 0, 0, 1, -32.22, -23.01)" filter="url(#Trazado_820)">
      <path id="Trazado_820-2" data-name="Trazado 820" d="M1867.294,19.13a5.626,5.626,0,1,1-5.625-5.528A5.577,5.577,0,0,1,1867.294,19.13Z" transform="translate(23.96 22.98)" fill="#fff"/>
    </g>
    <g transform="matrix(1, 0, 0, 1, -32.22, -23.01)" filter="url(#Trazado_821)">
      <path id="Trazado_821-2" data-name="Trazado 821" d="M2207.552,29.933a3.8,3.8,0,1,1-3.8-3.731A3.765,3.765,0,0,1,2207.552,29.933Z" transform="translate(23.96 22.98)" fill="#fff"/>
    </g>
    <g transform="matrix(1, 0, 0, 1, -32.22, -23.01)" filter="url(#Trazado_822)">
      <path id="Trazado_822-2" data-name="Trazado 822" d="M497.889,37.665a2.308,2.308,0,1,1-2.307-2.267A2.288,2.288,0,0,1,497.889,37.665Z" transform="translate(23.96 22.98)" fill="#fff"/>
    </g>
    <g transform="matrix(1, 0, 0, 1, -32.22, -23.01)" filter="url(#Trazado_823)">
      <path id="Trazado_823-2" data-name="Trazado 823" d="M1944.422,63.922a2.308,2.308,0,1,1-2.307-2.267A2.288,2.288,0,0,1,1944.422,63.922Z" transform="translate(23.96 22.98)" fill="#fff"/>
    </g>
    <g transform="matrix(1, 0, 0, 1, -32.22, -23.01)" filter="url(#Trazado_824)">
      <path id="Trazado_824-2" data-name="Trazado 824" d="M2019.95,42.128a.953.953,0,1,1,.953.936A.944.944,0,0,1,2019.95,42.128Z" transform="translate(23.96 22.98)" fill="#fff" opacity="0.49"/>
    </g>
    <g transform="matrix(1, 0, 0, 1, -32.22, -23.01)" filter="url(#Trazado_825)">
      <path id="Trazado_825-2" data-name="Trazado 825" d="M281.8,54.837a.953.953,0,1,1,.952.935A.945.945,0,0,1,281.8,54.837Z" transform="translate(23.96 22.98)" fill="#fff"/>
    </g>
    <g transform="matrix(1, 0, 0, 1, -32.22, -23.01)" filter="url(#Trazado_826)">
      <path id="Trazado_826-2" data-name="Trazado 826" d="M430.736,34.548a.953.953,0,1,1,.953.936A.944.944,0,0,1,430.736,34.548Z" transform="translate(23.96 22.98)" fill="#fff"/>
    </g>
    <g transform="matrix(1, 0, 0, 1, -32.22, -23.01)" filter="url(#Trazado_827)">
      <path id="Trazado_827-2" data-name="Trazado 827" d="M354.712,52.031a.953.953,0,1,1,.953.936A.944.944,0,0,1,354.712,52.031Z" transform="translate(23.96 22.98)" fill="#fff"/>
    </g>
    <g transform="matrix(1, 0, 0, 1, -32.22, -23.01)" filter="url(#Trazado_828)">
      <path id="Trazado_828-2" data-name="Trazado 828" d="M1579.557,31.326a.952.952,0,1,1,.952.936A.944.944,0,0,1,1579.557,31.326Z" transform="translate(23.96 22.98)" fill="#fff"/>
    </g>
    <g transform="matrix(1, 0, 0, 1, -32.22, -23.01)" filter="url(#Elipse_8)">
      <ellipse id="Elipse_8-2" data-name="Elipse 8" cx="4.407" cy="4.331" rx="4.407" ry="4.331" transform="translate(1753.28 43.31)" fill="#fff"/>
    </g>
    <g transform="matrix(1, 0, 0, 1, -32.22, -23.01)" filter="url(#Trazado_829)">
      <path id="Trazado_829-2" data-name="Trazado 829" d="M1907.281,68.253a4.408,4.408,0,1,1-4.407-4.331A4.369,4.369,0,0,1,1907.281,68.253Z" transform="translate(23.96 22.98)" fill="#fff"/>
    </g>
    <g transform="matrix(1, 0, 0, 1, -32.22, -23.01)" filter="url(#Trazado_830)">
      <path id="Trazado_830-2" data-name="Trazado 830" d="M2170.869,71.35a.953.953,0,1,1,.953.936A.945.945,0,0,1,2170.869,71.35Z" transform="translate(23.96 22.98)" fill="#fff"/>
    </g>
    <g transform="matrix(1, 0, 0, 1, -32.22, -23.01)" filter="url(#Trazado_831)">
      <path id="Trazado_831-2" data-name="Trazado 831" d="M327.923,12.255a2.308,2.308,0,1,1,2.308,2.267A2.288,2.288,0,0,1,327.923,12.255Z" transform="translate(23.96 22.98)" fill="#fff"/>
    </g>
    <g transform="matrix(1, 0, 0, 1, -32.22, -23.01)" filter="url(#Trazado_832)">
      <path id="Trazado_832-2" data-name="Trazado 832" d="M31.891,81a1.35,1.35,0,0,1-.666-.654c-1.03-2.183-2.077-6-2.077-12.554,0,6.551-1.048,10.371-2.077,12.554A1.356,1.356,0,0,1,26.4,81c-2.221,1.012-6.108,2.042-12.774,2.042,6.666,0,10.553,1.029,12.774,2.041a1.348,1.348,0,0,1,.667.654c1.029,2.183,2.077,6,2.077,12.554,0-6.551,1.047-10.371,2.077-12.554a1.342,1.342,0,0,1,.666-.654C34.113,84.07,38,83.041,44.666,83.041,38,83.041,34.113,82.011,31.891,81Z" transform="translate(23.96 22.98)" fill="#fff"/>
    </g>
    <g transform="matrix(1, 0, 0, 1, -32.22, -23.01)" filter="url(#Trazado_833)">
      <path id="Trazado_833-2" data-name="Trazado 833" d="M751.121,105.941a.952.952,0,0,1-.468.46c-1.56.71-13.329,1.433-18.011,1.433,4.682,0,16.451.723,18.011,1.434a.946.946,0,0,1,.468.459c.723,1.534,1.459,13.1,1.459,17.7,0-4.6.735-16.166,1.458-17.7a.946.946,0,0,1,.468-.459c1.56-.711,13.33-1.434,18.011-1.434-4.681,0-16.451-.723-18.011-1.433a.952.952,0,0,1-.468-.46c-.723-1.533-1.458-13.1-1.458-17.7C752.58,92.842,751.844,104.408,751.121,105.941Z" transform="translate(23.96 22.98)" fill="#fff"/>
    </g>
    <g transform="matrix(1, 0, 0, 1, -32.22, -23.01)" filter="url(#Trazado_834)">
      <path id="Trazado_834-2" data-name="Trazado 834" d="M971.969,22.927a4.332,4.332,0,1,1,4.407-4.331A4.37,4.37,0,0,1,971.969,22.927Z" transform="translate(23.96 22.98)" fill="#fff"/>
    </g>
    <g transform="matrix(1, 0, 0, 1, -32.22, -23.01)" filter="url(#Trazado_835)">
      <path id="Trazado_835-2" data-name="Trazado 835" d="M1201.418,30.135a2.267,2.267,0,1,1-2.307,2.267A2.287,2.287,0,0,1,1201.418,30.135Z" transform="translate(23.96 22.98)" fill="#fff"/>
    </g>
    <g transform="matrix(1, 0, 0, 1, -32.22, -23.01)" filter="url(#Trazado_836)">
      <path id="Trazado_836-2" data-name="Trazado 836" d="M1130.46,11.366a.936.936,0,1,1,.952-.936A.945.945,0,0,1,1130.46,11.366Z" transform="translate(23.96 22.98)" fill="#fff"/>
    </g>
    <g transform="matrix(1, 0, 0, 1, -32.22, -23.01)" filter="url(#Trazado_837)">
      <path id="Trazado_837-2" data-name="Trazado 837" d="M1048.847,43.526a.936.936,0,1,1,.953-.936A.944.944,0,0,1,1048.847,43.526Z" transform="translate(23.96 22.98)" fill="#fff"/>
    </g>
    <g transform="matrix(1, 0, 0, 1, -32.22, -23.01)" filter="url(#Trazado_838)">
      <path id="Trazado_838-2" data-name="Trazado 838" d="M1087.126,18.6a2.268,2.268,0,1,1,2.308-2.268A2.288,2.288,0,0,1,1087.126,18.6Z" transform="translate(23.96 22.98)" fill="#fff"/>
    </g>
    <g transform="matrix(1, 0, 0, 1, -32.22, -23.01)" filter="url(#Trazado_839)">
      <path id="Trazado_839-2" data-name="Trazado 839" d="M1072.386,4.566a2.288,2.288,0,0,1-2.308-2.267,2.308,2.308,0,0,1,4.615,0A2.287,2.287,0,0,1,1072.386,4.566Z" transform="translate(23.96 22.98)" fill="#fff"/>
    </g>
    <g transform="matrix(1, 0, 0, 1, -32.22, -23.01)" filter="url(#Trazado_840)">
      <path id="Trazado_840-2" data-name="Trazado 840" d="M1288.44,58.485a2.308,2.308,0,1,1-2.308-2.267A2.288,2.288,0,0,1,1288.44,58.485Z" transform="translate(23.96 22.98)" fill="#fff"/>
    </g>
    <g transform="matrix(1, 0, 0, 1, -32.22, -23.01)" filter="url(#Trazado_841)">
      <path id="Trazado_841-2" data-name="Trazado 841" d="M807.16,23.46a2.268,2.268,0,1,1-2.307,2.268A2.288,2.288,0,0,1,807.16,23.46Z" transform="translate(23.96 22.98)" fill="#fff"/>
    </g>
    <g transform="matrix(1, 0, 0, 1, -32.22, -23.01)" filter="url(#Trazado_842)">
      <path id="Trazado_842-2" data-name="Trazado 842" d="M2093.11,59.291a1.841,1.841,0,0,1-.911.9c-3.037,1.384-8.352,2.791-17.466,2.791,9.114,0,14.429,1.407,17.466,2.791a1.841,1.841,0,0,1,.911.9c1.407,2.984,2.84,8.207,2.84,17.163,0-8.956,1.432-14.179,2.84-17.163a1.839,1.839,0,0,1,.91-.9c3.037-1.384,8.352-2.791,17.466-2.791-9.114,0-14.429-1.407-17.466-2.791a1.839,1.839,0,0,1-.91-.9c-1.408-2.984-2.84-8.207-2.84-17.163C2095.95,51.084,2094.517,56.307,2093.11,59.291Z" transform="translate(23.96 22.98)" fill="#fff"/>
    </g>
    <g transform="matrix(1, 0, 0, 1, -32.22, -23.01)" filter="url(#Trazado_843)">
      <path id="Trazado_843-2" data-name="Trazado 843" d="M1160.147,57.5a2.268,2.268,0,1,1,2.308-2.267A2.287,2.287,0,0,1,1160.147,57.5Z" transform="translate(23.96 22.98)" fill="#fff"/>
    </g>
    <g transform="matrix(1, 0, 0, 1, -32.22, -23.01)" filter="url(#Trazado_844)">
      <path id="Trazado_844-2" data-name="Trazado 844" d="M2463.4,18a2.268,2.268,0,1,1,2.307-2.268A2.288,2.288,0,0,1,2463.4,18Z" transform="translate(23.96 22.98)" fill="#fff"/>
    </g>
    <g transform="matrix(1, 0, 0, 1, -32.22, -23.01)" filter="url(#Trazado_845)">
      <path id="Trazado_845-2" data-name="Trazado 845" d="M923,39.933a2.268,2.268,0,1,1,2.307-2.268A2.288,2.288,0,0,1,923,39.933Z" transform="translate(23.96 22.98)" fill="#fff"/>
    </g>
    <g transform="matrix(1, 0, 0, 1, -32.22, -23.01)" filter="url(#Trazado_846)">
      <path id="Trazado_846-2" data-name="Trazado 846" d="M1369.756,33.263A2.268,2.268,0,1,1,1372.064,31,2.288,2.288,0,0,1,1369.756,33.263Z" transform="translate(23.96 22.98)" fill="#fff"/>
    </g>
    <g transform="matrix(1, 0, 0, 1, -32.22, -23.01)" filter="url(#Trazado_847)">
      <path id="Trazado_847-2" data-name="Trazado 847" d="M1440.715,52.031a.936.936,0,1,1-.952.936A.945.945,0,0,1,1440.715,52.031Z" transform="translate(23.96 22.98)" fill="#fff"/>
    </g>
    <g transform="matrix(1, 0, 0, 1, -32.22, -23.01)" filter="url(#Trazado_848)">
      <path id="Trazado_848-2" data-name="Trazado 848" d="M1465.739,28a.936.936,0,1,1-.953.936A.944.944,0,0,1,1465.739,28Z" transform="translate(23.96 22.98)" fill="#fff"/>
    </g>
    <g transform="matrix(1, 0, 0, 1, -32.22, -23.01)" filter="url(#Elipse_9)">
      <ellipse id="Elipse_9-2" data-name="Elipse 9" cx="2.308" cy="2.267" rx="2.308" ry="2.267" transform="translate(1416.39 84.58)" fill="#fff"/>
    </g>
    <g transform="matrix(1, 0, 0, 1, -32.22, -23.01)" filter="url(#Trazado_849)">
      <path id="Trazado_849-2" data-name="Trazado 849" d="M1320.773,37.594a4.332,4.332,0,1,1,4.407-4.331A4.37,4.37,0,0,1,1320.773,37.594Z" transform="translate(23.96 22.98)" fill="#fff"/>
    </g>
    <g transform="matrix(1, 0, 0, 1, -32.22, -23.01)" filter="url(#Trazado_850)">
      <path id="Trazado_850-2" data-name="Trazado 850" d="M865.051,34.548a.936.936,0,1,1-.953.936A.944.944,0,0,1,865.051,34.548Z" transform="translate(23.96 22.98)" fill="#fff"/>
    </g>
    <g transform="matrix(1, 0, 0, 1, -32.22, -23.01)" filter="url(#Trazado_851)">
      <path id="Trazado_851-2" data-name="Trazado 851" d="M2547.074,32.728a.936.936,0,1,1-.952.936A.945.945,0,0,1,2547.074,32.728Z" transform="translate(23.96 22.98)" fill="#fff"/>
    </g>
    <g transform="matrix(1, 0, 0, 1, -32.22, -23.01)" filter="url(#Trazado_852)">
      <path id="Trazado_852-2" data-name="Trazado 852" d="M2499.062,51.076a.937.937,0,1,1-.952.937A.946.946,0,0,1,2499.062,51.076Z" transform="translate(23.96 22.98)" fill="#fff"/>
    </g>
    <g transform="matrix(1, 0, 0, 1, -32.22, -23.01)" filter="url(#Trazado_853)">
      <path id="Trazado_853-2" data-name="Trazado 853" d="M2518.135,18.193a.936.936,0,1,1-.953.937A.944.944,0,0,1,2518.135,18.193Z" transform="translate(23.96 22.98)" fill="#fff"/>
    </g>
    <g transform="matrix(1, 0, 0, 1, -32.22, -23.01)" filter="url(#Trazado_854)">
      <path id="Trazado_854-2" data-name="Trazado 854" d="M2442.312,22.524a.936.936,0,1,1-.953.936A.944.944,0,0,1,2442.312,22.524Z" transform="translate(23.96 22.98)" fill="#fff"/>
    </g>
    <g transform="matrix(1, 0, 0, 1, -32.22, -23.01)" filter="url(#Trazado_855)">
      <path id="Trazado_855-2" data-name="Trazado 855" d="M2275.9,76.912a4.331,4.331,0,1,1-4.407,4.331A4.37,4.37,0,0,1,2275.9,76.912Z" transform="translate(23.96 22.98)" fill="#fff"/>
    </g>
    <g transform="matrix(1, 0, 0, 1, -32.22, -23.01)" filter="url(#Trazado_856)">
      <path id="Trazado_856-2" data-name="Trazado 856" d="M465.913,79.411a.921.921,0,0,1-.453.445c-1.509.687-4.15,1.386-8.68,1.386,4.53,0,7.171.7,8.68,1.387a.921.921,0,0,1,.453.445c.7,1.483,1.411,4.079,1.411,8.529,0-4.45.712-7.046,1.411-8.529a.917.917,0,0,1,.453-.445c1.509-.687,4.15-1.387,8.68-1.387-4.53,0-7.171-.7-8.68-1.386a.917.917,0,0,1-.453-.445c-.7-1.483-1.411-4.079-1.411-8.529C467.324,75.332,466.612,77.928,465.913,79.411Z" transform="translate(23.96 22.98)" fill="#fff"/>
    </g>
    <g transform="matrix(1, 0, 0, 1, -32.22, -23.01)" filter="url(#Trazado_857)">
      <path id="Trazado_857-2" data-name="Trazado 857" d="M2474.386,113.492a.909.909,0,0,1,.453.445c.7,1.483,1.411,4.078,1.411,8.529,0-4.451.712-7.046,1.411-8.529a.917.917,0,0,1,.453-.445c1.51-.687,4.151-1.387,8.68-1.387-4.529,0-7.17-.7-8.68-1.387a.917.917,0,0,1-.453-.445c-.7-1.483-1.411-4.078-1.411-8.529,0,4.451-.712,7.046-1.411,8.529a.909.909,0,0,1-.453.445c-1.509.688-4.15,1.387-8.68,1.387C2470.236,112.105,2472.877,112.805,2474.386,113.492Z" transform="translate(23.96 22.98)" fill="#fff" opacity="0.49"/>
    </g>
  </g>
</svg>
